<?xml version="1.0" standalone="no"?>
<!DOCTYPE svg PUBLIC "-//W3C//DTD SVG 20010904//EN"
 "http://www.w3.org/TR/2001/REC-SVG-20010904/DTD/svg10.dtd">
<svg version="1.0" xmlns="http://www.w3.org/2000/svg"
 width="2048.000000pt" height="2048.000000pt" viewBox="0 0 2048.000000 2048.000000"
 preserveAspectRatio="xMidYMid meet">
<metadata>
Created by potrace 1.16, written by Peter Selinger 2001-2019
</metadata>
<g transform="translate(0.000000,2048.000000) scale(0.100000,-0.100000)"
fill="#000000" stroke="none">
<path d="M9767 13533 c-1 -1 -94 -4 -205 -6 -112 -3 -205 -6 -207 -8 -2 -2 -7
-32 -11 -67 l-7 -62 224 5 c480 12 1415 7 1915 -11 l191 -7 6 39 c4 21 7 51 7
65 l0 26 -212 7 c-368 13 -1693 28 -1701 19z"/>
<path d="M8649 13496 c-4 -5 -337 -27 -469 -32 -36 -1 -110 -6 -165 -12 -55
-6 -120 -11 -145 -11 -25 -1 -83 -6 -130 -12 -47 -6 -103 -11 -125 -10 -22 0
-67 -4 -100 -9 -33 -5 -100 -12 -150 -15 -49 -3 -130 -12 -180 -20 -49 -8
-108 -15 -130 -15 -22 0 -87 -6 -145 -14 -231 -33 -356 -49 -385 -51 -81 -5
-75 1 -75 -71 l0 -65 78 4 c42 3 122 12 177 20 95 15 197 28 505 61 230 26
363 39 420 41 31 2 98 8 150 14 52 5 169 15 260 21 91 6 217 15 280 20 63 5
168 12 234 15 65 4 125 9 132 12 18 6 18 69 1 102 -12 24 -29 36 -38 27z"/>
<path d="M12250 13441 c0 -11 -10 -36 -21 -56 -12 -20 -19 -39 -15 -42 3 -4
75 -10 159 -15 207 -12 350 -23 557 -43 96 -9 198 -19 225 -21 59 -5 270 -28
405 -45 52 -6 147 -18 210 -25 251 -29 349 -42 411 -53 58 -10 219 -35 310
-48 20 -3 40 0 43 5 11 18 23 100 17 111 -9 14 -200 45 -526 85 -60 8 -144 19
-185 25 -145 21 -452 55 -639 71 -63 5 -128 12 -144 16 -17 3 -87 10 -156 16
-69 5 -178 13 -241 18 -63 6 -181 13 -262 16 -144 6 -148 5 -148 -15z"/>
<path d="M5428 13119 c-31 -4 -93 -17 -139 -29 -45 -11 -93 -20 -106 -20 -14
0 -82 -13 -151 -29 -357 -83 -409 -95 -427 -97 -11 -2 -69 -17 -130 -34 -60
-17 -125 -33 -144 -36 -33 -4 -175 -46 -219 -65 -13 -5 -30 -9 -39 -9 -51 0
-744 -228 -750 -246 -2 -5 8 -22 22 -38 13 -16 27 -37 30 -47 8 -24 22 -24 87
2 29 11 62 23 73 25 11 2 81 24 155 48 215 71 394 126 410 126 8 0 42 10 75
21 78 27 120 39 175 49 25 5 95 21 155 38 171 45 369 93 406 98 19 2 81 15
139 29 110 25 389 81 452 90 43 7 52 23 32 60 -8 15 -14 38 -14 51 0 26 -1 27
-92 13z"/>
<path d="M15117 13114 c-3 -5 -12 -33 -21 -62 -11 -40 -12 -54 -3 -57 21 -7
169 -37 292 -59 66 -12 127 -25 135 -29 8 -4 69 -16 135 -28 66 -11 127 -24
135 -29 8 -4 56 -15 105 -24 50 -9 119 -25 155 -36 36 -10 108 -28 160 -40 52
-12 104 -26 115 -31 11 -5 74 -22 140 -38 66 -16 138 -36 160 -45 22 -8 69
-23 105 -31 80 -20 106 -28 199 -60 40 -14 79 -25 86 -25 14 0 65 83 65 105 0
8 -37 24 -87 40 -49 15 -119 37 -158 50 -38 13 -86 26 -105 30 -19 4 -62 16
-95 27 -33 11 -118 35 -190 53 -71 19 -164 43 -205 54 -179 46 -352 87 -545
127 -38 8 -99 22 -135 30 -36 9 -121 25 -190 37 -69 12 -130 25 -136 29 -17
11 -111 21 -117 12z"/>
<path d="M17553 12400 c-18 -28 -33 -54 -33 -58 0 -5 30 -19 68 -32 37 -12 83
-31 102 -41 19 -10 76 -34 125 -55 103 -41 374 -175 515 -253 52 -30 162 -98
243 -152 81 -55 154 -99 162 -99 16 0 115 60 115 70 0 11 -230 174 -230 162 0
-4 -4 -2 -8 3 -32 47 -607 345 -837 435 -44 17 -98 40 -121 51 -22 10 -47 19
-55 18 -8 0 -29 -22 -46 -49z"/>
<path d="M2385 12149 c-45 -23 -187 -110 -195 -118 -3 -3 -21 -15 -40 -25 -94
-51 -360 -252 -360 -271 0 -7 18 -20 40 -30 22 -10 45 -24 51 -32 18 -21 41
-15 80 20 75 69 346 251 464 313 44 23 81 49 83 58 5 23 -47 106 -66 106 -10
-1 -35 -10 -57 -21z"/>
<path d="M19153 11400 c-50 -29 -65 -51 -44 -65 13 -7 101 -134 101 -144 0 -4
8 -16 18 -27 19 -20 58 -115 89 -214 22 -71 22 -283 0 -351 -8 -26 -12 -51 -8
-57 9 -14 91 -54 103 -50 5 2 19 30 31 63 18 51 21 84 21 220 1 152 0 164 -28
245 -17 47 -31 92 -32 100 -8 47 -163 299 -189 307 -5 1 -34 -11 -62 -27z"/>
<path d="M1478 11383 c-42 -47 -131 -261 -148 -354 -19 -104 -17 -274 3 -364
27 -117 50 -179 67 -182 8 -2 34 14 58 35 l43 37 -28 105 c-58 224 -19 429
124 646 21 33 11 51 -39 74 -53 24 -61 24 -80 3z"/>
<path d="M1677 10174 c-31 -20 -57 -38 -57 -41 0 -29 356 -343 388 -343 6 0
12 -4 14 -8 7 -17 167 -122 186 -122 12 0 24 11 32 30 7 16 18 35 26 41 26 21
14 38 -63 90 -78 52 -269 195 -288 214 -5 6 -48 48 -96 93 l-85 82 -57 -36z"/>
<path d="M19043 10129 c-11 -4 -31 -21 -44 -37 -73 -92 -423 -353 -611 -456
-52 -28 -212 -117 -215 -120 -7 -6 33 -119 43 -123 7 -3 53 18 103 46 49 28
118 66 153 84 162 86 441 289 570 414 161 157 169 169 121 178 -16 3 -44 9
-64 13 -20 5 -45 5 -56 1z"/>
<path d="M2607 9506 c-20 -25 -37 -47 -37 -49 0 -10 135 -79 239 -123 58 -24
122 -53 141 -63 19 -10 80 -36 135 -56 55 -20 113 -44 130 -53 36 -18 363
-133 465 -162 25 -8 51 -18 57 -23 21 -16 41 0 63 49 25 58 22 70 -21 79 -19
4 -40 12 -49 17 -8 5 -69 26 -135 48 -134 43 -380 134 -409 151 -10 6 -59 26
-108 45 -49 19 -121 50 -161 68 -190 89 -251 116 -261 116 -7 0 -28 -20 -49
-44z"/>
<path d="M17670 9291 c-25 -10 -70 -28 -100 -39 -30 -12 -95 -36 -145 -55
-121 -46 -261 -94 -370 -127 -49 -16 -117 -38 -150 -50 -33 -12 -78 -25 -100
-30 -22 -4 -87 -22 -145 -40 -58 -17 -122 -35 -143 -40 -21 -4 -41 -10 -44
-14 -11 -10 30 -115 46 -119 9 -2 54 8 101 21 47 13 121 34 165 46 108 30 262
79 430 137 77 26 158 53 180 59 38 12 97 34 330 127 113 45 119 55 60 111 -40
37 -53 38 -115 13z"/>
<path d="M4223 8912 c-13 -28 -23 -54 -23 -60 0 -12 125 -53 235 -77 44 -10
96 -23 115 -30 19 -7 85 -22 145 -34 61 -13 118 -27 128 -32 10 -6 69 -19 130
-30 62 -11 124 -24 138 -30 25 -10 142 -34 409 -85 69 -13 159 -30 200 -38
104 -21 140 -20 141 2 0 9 3 38 5 63 l5 47 -88 12 c-48 7 -101 17 -118 22 -16
5 -84 18 -150 29 -66 11 -129 24 -140 29 -11 5 -54 14 -95 20 -41 7 -102 19
-135 27 -33 9 -116 28 -185 43 -176 40 -352 82 -515 125 -77 21 -149 39 -160
42 -16 3 -25 -6 -42 -45z"/>
<path d="M15815 8740 c-110 -28 -254 -58 -440 -90 -55 -10 -118 -23 -140 -28
-22 -6 -60 -13 -85 -16 -25 -3 -94 -14 -155 -25 -286 -52 -346 -62 -396 -66
-30 -3 -99 -13 -154 -24 -55 -10 -103 -17 -106 -15 -3 1 -59 -6 -125 -16 -65
-11 -139 -20 -164 -20 -64 0 -72 -9 -69 -66 1 -27 4 -55 7 -62 5 -15 79 -11
225 13 53 9 116 17 140 19 52 4 224 30 382 58 66 12 136 23 155 24 19 2 85 12
145 23 61 12 175 32 255 47 188 34 403 78 560 115 69 16 135 29 147 29 34 0
35 13 8 74 -30 67 -29 67 -190 26z"/>
<path d="M6261 8494 c-25 -92 -29 -87 94 -106 61 -10 164 -24 230 -32 66 -8
127 -17 135 -20 15 -6 195 -28 385 -47 55 -5 123 -14 150 -20 28 -5 100 -14
160 -19 61 -5 182 -17 270 -25 243 -24 377 -35 520 -43 72 -4 135 -10 141 -14
18 -12 31 12 37 68 6 50 5 51 -27 62 -18 7 -71 12 -119 12 -48 0 -117 4 -154
10 -38 5 -131 15 -208 21 -503 43 -570 50 -600 59 -16 5 -70 12 -120 15 -49 4
-126 13 -170 20 -44 7 -120 16 -170 20 -49 4 -94 11 -100 15 -5 4 -66 13 -135
19 -68 7 -131 16 -140 21 -8 4 -50 11 -92 15 l-77 7 -10 -38z"/>
<path d="M13370 8364 c-151 -18 -333 -36 -418 -40 -39 -1 -108 -8 -152 -15
-44 -6 -86 -9 -93 -6 -8 3 -69 -1 -137 -9 -68 -8 -129 -13 -135 -10 -6 2 -51
0 -101 -5 -104 -9 -383 -24 -651 -33 -55 -2 -106 -7 -112 -10 -6 -4 -11 -35
-11 -68 l0 -61 150 7 c83 4 196 9 253 12 56 3 140 6 187 8 47 2 121 7 165 10
44 4 116 9 160 11 44 2 143 9 220 15 77 6 199 14 270 20 72 5 163 14 202 20
40 6 76 9 81 6 4 -2 55 2 112 10 58 8 125 16 150 17 l45 2 0 64 0 64 -40 2
c-22 2 -87 -3 -145 -11z"/>
<path d="M8815 8209 c-4 -33 -5 -63 -2 -66 3 -3 291 -16 639 -28 691 -26 1674
-32 1681 -11 2 6 1 36 -1 66 l-4 55 -516 -1 c-455 -2 -1307 19 -1694 41 l-96
5 -7 -61z"/>
</g>
</svg>
