<?xml version="1.0" standalone="no"?>
<!DOCTYPE svg PUBLIC "-//W3C//DTD SVG 20010904//EN"
 "http://www.w3.org/TR/2001/REC-SVG-20010904/DTD/svg10.dtd">
<svg version="1.0" xmlns="http://www.w3.org/2000/svg"
 width="318.000000pt" height="225.000000pt" viewBox="0 0 318.000000 225.000000"
 preserveAspectRatio="xMidYMid meet">
<metadata>
Created by potrace 1.16, written by Peter Selinger 2001-2019
</metadata>
<g transform="translate(0.000000,225.000000) scale(0.100000,-0.100000)"
fill="#000000" stroke="none">
<path d="M1138 1600 c-38 -3 -71 -9 -74 -12 -3 -4 2 -31 12 -62 17 -54 19 -56
48 -51 85 14 254 25 386 25 l148 0 6 31 c3 17 6 42 6 55 l0 24 -232 -1 c-128
-1 -263 -5 -300 -9z"/>
<path d="M1886 1598 c-3 -7 -6 -34 -9 -60 l-4 -47 46 -6 c124 -16 302 -47 351
-60 79 -21 92 -19 117 19 39 60 36 68 -37 89 -68 19 -304 61 -403 71 -42 5
-59 3 -61 -6z"/>
<path d="M745 1523 c-130 -36 -226 -73 -232 -89 -7 -18 35 -104 50 -104 7 0
33 11 58 24 42 21 80 32 217 66 34 9 42 15 42 33 0 38 -20 97 -33 96 -7 0 -52
-12 -102 -26z"/>
<path d="M2623 1384 c-24 -20 -43 -39 -43 -43 0 -4 27 -20 60 -36 33 -16 60
-32 60 -37 0 -4 4 -8 10 -8 15 0 79 -72 86 -98 4 -15 -2 -33 -21 -58 l-27 -36
38 -39 c44 -45 53 -47 82 -16 81 86 61 238 -41 320 -46 37 -133 87 -151 87 -6
0 -30 -16 -53 -36z"/>
<path d="M290 1178 c0 -59 40 -138 93 -180 53 -43 131 -88 151 -88 16 0 66 66
66 87 0 6 -27 28 -59 47 -65 40 -117 93 -127 130 -4 17 -15 25 -37 30 -18 3
-44 9 -59 12 -27 6 -28 5 -28 -38z"/>
<path d="M2480 940 c-71 -24 -210 -58 -280 -68 l-55 -8 3 -49 c1 -27 6 -53 10
-57 23 -23 332 43 444 95 l48 22 -36 43 c-40 48 -53 50 -134 22z"/>
<path d="M782 886 c-18 -24 -32 -48 -32 -54 0 -18 219 -66 353 -78 61 -5 77
-4 78 7 0 8 2 33 5 56 6 48 7 47 -101 57 -33 3 -104 17 -158 31 -54 14 -101
25 -106 25 -4 0 -22 -20 -39 -44z"/>
<path d="M1390 779 l0 -57 126 -7 c70 -4 195 -4 278 1 l151 9 -2 35 c-6 84 21
76 -283 76 l-270 0 0 -57z"/>
</g>
</svg>
