<svg width="301" height="268" viewBox="0 0 301 268" fill="none" xmlns="http://www.w3.org/2000/svg">
<path d="M15.4681 246.064C15.4681 234.452 13.0234 220.64 18.6825 210.147C21.8811 204.216 34.869 202.648 40.5688 205.135C47.9535 208.357 53.028 214.443 58.4371 219.753C62.3719 223.615 65.7363 233.83 59.7134 237.525C57.3117 238.999 54.5282 238.546 51.6302 238.546C46.1175 238.546 49.4285 239.992 47.6122 243.558C46.2812 246.171 41.8025 246.866 39.718 245.229C38.9262 244.607 38.3078 242.39 37.5908 243.094C37.4081 243.273 37.5908 244.593 37.5908 244.857C37.5908 246.729 36.5476 247.878 35.5109 249.358C34.3304 251.044 28.882 256.569 26.7185 252.746C25.8287 251.174 25.8237 249.319 25.0168 247.734C24.8624 247.431 24.4281 249.611 23.5987 250.658C22.4006 252.17 17.4218 257.775 15.2791 255.437C12.0202 251.883 15.7506 244.024 18.0208 241.052" stroke="black" stroke-linecap="round" stroke-linejoin="round"/>
<path d="M40.3588 213C37.6062 213.081 32.5866 215.54 36.3473 219.185C38.1385 220.921 41.6494 221.12 44.0056 220.952C46.4518 220.778 43.7147 215.545 42.9116 214.767C41.7773 213.668 38.1665 213.01 37.4414 214.767" stroke="black" stroke-linecap="round" stroke-linejoin="round"/>
<path d="M41.9672 216C39.4227 217.312 38.323 217.806 37.2508 219.847C36.5333 221.212 37.5173 221.423 38.1772 220.167C38.7819 219.016 39.6932 218.639 39.6932 217.282C39.6932 216.639 40.8556 217.75 41.5882 217.888C43.6055 218.267 37.5632 215.853 37.4192 217.923C37.2382 220.525 40.6202 217.637 41.2092 216.641" stroke="black" stroke-linecap="round" stroke-linejoin="round"/>
<path d="M50.9827 251.677C42.4706 251.677 29.9258 252.604 23.7949 259.211C16.6452 266.915 32.6769 264.399 36.9812 263.582C40.9889 262.822 45.2443 261.287 49.0647 259.862C51.313 259.023 54.5611 258.221 56.1613 256.281C60.3397 251.216 49.5138 250.948 46.6672 252.328C42.7318 254.237 38.2615 255.799 33.9124 256.514C32.7131 256.711 23.7763 261.179 25.5691 261.675C30.3073 262.988 38.6588 258.608 42.7352 256.7C44.4569 255.894 55.5223 252.514 49.2565 252.514C42.4093 252.514 37.8961 254.851 31.8026 257.537C30.0656 258.302 23.5667 265.57 28.6379 265.024C35.2463 264.311 42.6358 260.935 48.2016 257.537C53.126 254.53 45.8089 254.189 43.2148 254.189C33.8424 254.189 25.9081 259.115 19.1917 264.977C13.1953 270.211 31.7107 263.692 33.0493 263.21C43.6671 259.383 54.8284 257.221 65.4637 253.538C73.2468 250.842 60.8311 250.003 58.7027 250.003C50.4598 250.003 41.4671 249.725 34.2001 254.235C30.814 256.337 23.598 260.587 21.8289 264.233C21.4084 265.1 36.8238 265.084 38.0361 265.07C44.6349 264.996 53.6228 263.362 59.1822 259.629C59.9509 259.113 67.7705 253.352 63.4498 253.352C56.689 253.352 52.5295 254.107 46.1877 256.514C44.973 256.975 30.5527 264.725 32.378 265.721C39.1606 269.421 53.8948 260.66 59.9014 258.048C64.9558 255.851 64.6103 253.192 58.7506 252.561C51.0342 251.729 42.7768 252.166 35.6386 255.026C34.7972 255.363 26.6258 261.609 29.8846 262.512C34.5839 263.815 40.9074 258.374 45.8041 258.374" stroke="black" stroke-linecap="round" stroke-linejoin="round"/>
<path d="M278.101 83.5478C278.101 74.839 279.598 64.4803 276.133 56.6102C274.175 52.162 266.223 50.9863 262.733 52.8514C258.212 55.2679 255.105 59.8319 251.794 63.8144C249.385 66.7114 247.325 74.3726 251.012 77.1441C252.483 78.2492 254.187 77.9097 255.961 77.9097C259.336 77.9097 257.309 78.9939 258.421 81.6685C259.236 83.6283 261.978 84.1492 263.254 82.9214C263.739 82.455 264.118 80.7926 264.557 81.3204C264.668 81.4549 264.557 82.4444 264.557 82.643C264.557 84.047 265.195 84.9086 265.83 86.0189C266.553 87.2831 269.889 91.4267 271.213 88.5595C271.758 87.3802 271.761 85.9889 272.255 84.8008C272.35 84.5733 272.615 86.2082 273.123 86.9934C273.857 88.1275 276.905 92.331 278.217 90.5781C280.212 87.9121 277.928 82.0177 276.538 79.7891" stroke="black" stroke-linecap="round" stroke-linejoin="round"/>
<path d="M262.249 58C264.176 58.061 267.689 59.9051 265.057 62.6386C263.803 63.9404 261.345 64.0898 259.696 63.9639C257.984 63.8331 259.9 59.909 260.462 59.3253C261.256 58.5009 263.783 58.0078 264.291 59.3253" stroke="black" stroke-linecap="round" stroke-linejoin="round"/>
<path d="M262.026 60C264.062 61.0498 264.942 61.4449 265.799 63.0773C266.373 64.1696 265.586 64.3385 265.058 63.3338C264.574 62.4131 263.845 62.111 263.845 61.0258C263.845 60.5115 262.916 61.4 262.329 61.5102C260.716 61.8135 265.549 59.8828 265.665 61.5387C265.809 63.6204 263.104 61.31 262.633 60.5129" stroke="black" stroke-linecap="round" stroke-linejoin="round"/>
<path d="M256.912 95.4487C261.918 93.3251 269.576 90.8875 275.173 94.2888C281.701 98.2553 271.514 100.377 268.736 100.841C266.15 101.273 263.184 101.189 260.508 101.079C258.932 101.014 256.78 101.225 255.254 100.177C251.27 97.4385 257.556 94.5379 259.647 94.858C262.536 95.3005 265.636 95.3511 268.41 94.7997C269.175 94.6477 275.778 95.7529 274.873 96.5709C272.482 98.7328 266.25 97.5471 263.277 97.1396C262.021 96.9675 254.495 97.2059 258.18 95.6428C262.207 93.9346 265.565 94.5523 269.959 95.037C271.211 95.1751 277.225 98.9782 274.077 99.8354C269.976 100.953 264.612 100.276 260.314 99.128C256.512 98.1122 260.712 96.0322 262.238 95.385C267.75 93.0469 273.902 94.7443 279.619 97.4442C284.724 99.8546 271.869 99.6085 270.936 99.5823C263.538 99.3746 256.322 100.546 248.956 100.45C243.566 100.379 250.615 96.6561 251.867 96.1251C256.715 94.0687 261.92 91.6173 267.554 93.1708C270.179 93.8947 275.704 95.2671 277.844 97.5468C278.352 98.0887 269.281 101.922 268.564 102.215C264.661 103.806 258.882 104.828 254.487 103.429C253.879 103.236 247.543 100.886 250.085 99.8083C254.061 98.1217 256.735 97.6479 261.19 97.862C262.044 97.9031 272.861 100.091 272.088 101.289C269.214 105.743 257.907 102.879 253.587 102.429C249.952 102.049 249.354 99.979 252.61 98.046C256.898 95.5003 261.886 93.7664 266.946 94.1197C267.542 94.1614 274.232 96.7853 272.587 98.2722C270.216 100.416 264.857 97.9331 261.977 99.1547" stroke="black" stroke-linecap="round" stroke-linejoin="round"/>
<path d="M64.0187 30.93C64.0187 22.6678 62.3224 12.8403 66.2491 5.37377C68.4685 1.15366 77.4805 0.038294 81.4355 1.80778C86.5596 4.10031 90.0806 8.4303 93.8339 12.2086C96.5641 14.957 98.8987 22.2253 94.7195 24.8546C93.053 25.9031 91.1216 25.581 89.1107 25.581C85.2856 25.581 87.583 26.6096 86.3227 29.147C85.3992 31.0064 82.2915 31.5005 80.8451 30.3357C80.2957 29.8932 79.8666 28.316 79.3691 28.8168C79.2424 28.9444 79.3691 29.8832 79.3691 30.0715C79.3691 31.4036 78.6453 32.221 77.9259 33.2743C77.1068 34.4737 73.3263 38.4048 71.8251 35.6847C71.2076 34.5658 71.2042 33.2459 70.6443 32.1187C70.5372 31.9029 70.2358 33.4539 69.6603 34.1988C68.829 35.2748 65.3743 39.2627 63.8875 37.5997C61.6263 35.0705 64.2147 29.4783 65.7899 27.364" stroke="black" stroke-linecap="round" stroke-linejoin="round"/>
<path d="M80.287 7C78.085 7.05083 74.0692 8.58759 77.0779 10.8655C78.5108 11.9503 81.3195 12.0748 83.2045 11.9699C85.1615 11.8609 82.9717 8.59085 82.3292 8.10442C81.4219 7.41742 78.5332 7.00646 77.9531 8.10442" stroke="black" stroke-linecap="round" stroke-linejoin="round"/>
<path d="M80.9803 9C79.4536 10.5747 78.7938 11.1674 78.1505 13.616C77.72 15.2545 78.3104 15.5077 78.7063 14.0007C79.0692 12.6197 79.6159 12.1664 79.6159 10.5387C79.6159 9.76719 80.3134 11.1 80.7529 11.2653C81.9633 11.7203 78.3379 8.82417 78.2515 11.308C78.1429 14.4306 80.1721 10.965 80.5255 9.76934" stroke="black" stroke-linecap="round" stroke-linejoin="round"/>
<path d="M89.7475 34.3814C83.6188 34.3814 74.5866 35.1448 70.1723 40.5853C65.0245 46.93 76.5673 44.8577 79.6665 44.1851C82.552 43.5589 85.6159 42.295 88.3666 41.1215C89.9854 40.4308 92.324 39.7702 93.4761 38.1727C96.4846 34.0014 88.69 33.7808 86.6404 34.9176C83.8069 36.4891 80.5882 37.7755 77.4569 38.3642C76.5935 38.5265 70.1589 42.2059 71.4497 42.615C74.8612 43.6962 80.8743 40.0891 83.8094 38.5174C85.0489 37.8536 93.0161 35.0707 88.5047 35.0707C83.5747 35.0707 80.3252 36.9946 75.9379 39.2067C74.6873 39.8372 70.008 45.8223 73.6593 45.3723C78.4173 44.7859 83.7378 42.0055 87.7451 39.2067C91.2907 36.7304 86.0224 36.4494 84.1546 36.4494C77.4065 36.4494 71.6939 40.5063 66.858 45.334C62.5406 49.6441 75.8717 44.2761 76.8355 43.8788C84.4803 40.7269 92.5164 38.9468 100.174 35.9133C105.778 33.6933 96.8384 33.0028 95.3059 33.0028C89.3711 33.0028 82.8963 32.7733 77.6641 36.4877C75.226 38.2185 70.0305 41.719 68.7568 44.7213C68.4541 45.435 79.5531 45.4217 80.426 45.4106C85.1771 45.35 91.6484 44.0039 95.6512 40.93C96.2047 40.505 101.835 35.7601 98.7238 35.7601C93.8561 35.7601 90.8613 36.3822 86.2951 38.3642C85.4206 38.7438 75.038 45.1268 76.3522 45.9467C81.2356 48.9938 91.8443 41.7784 96.169 39.6279C99.8082 37.8184 99.5594 35.629 95.3405 35.109C89.7846 34.4243 83.8393 34.784 78.6998 37.1387C78.094 37.4163 72.2106 42.5607 74.5569 43.3043C77.9404 44.3767 82.4933 39.896 86.0189 39.896" stroke="black" stroke-linecap="round" stroke-linejoin="round"/>
<path d="M2.28837 130.828C2.28837 120.11 0.143008 107.36 5.10917 97.6741C7.91606 92.1993 19.3136 90.7524 24.3155 93.0479C30.796 96.022 35.249 101.639 39.9958 106.541C43.4488 110.106 46.4013 119.535 41.1159 122.947C39.0082 124.307 36.5656 123.889 34.0224 123.889C29.1847 123.889 32.0903 125.223 30.4964 128.515C29.3284 130.927 25.3981 131.568 23.5688 130.057C22.874 129.483 22.3313 127.437 21.7021 128.087C21.5418 128.252 21.7021 129.47 21.7021 129.714C21.7021 131.442 20.7867 132.503 19.8769 133.869C18.841 135.425 14.0597 140.525 12.1612 136.996C11.3803 135.545 11.3759 133.832 10.6678 132.37C10.5323 132.09 10.1512 134.102 9.42333 135.069C8.37193 136.465 4.00279 141.638 2.12244 139.481C-0.737366 136.2 2.53623 128.945 4.52841 126.202" stroke="black" stroke-linecap="round" stroke-linejoin="round"/>
<path d="M24.8947 103C21.8669 103.081 16.3452 105.54 20.4821 109.185C22.4523 110.921 26.3143 111.12 28.9062 110.952C31.597 110.778 28.5861 105.545 27.7027 104.767C26.4551 103.668 22.4831 103.01 21.6855 104.767" stroke="black" stroke-linecap="round" stroke-linejoin="round"/>
<path d="M24.9606 105C21.9072 106.575 20.5876 107.167 19.3009 109.616C18.4399 111.254 19.6207 111.508 20.4126 110.001C21.1383 108.62 22.2318 108.166 22.2318 106.539C22.2318 105.767 23.6267 107.1 24.5058 107.265C26.9266 107.72 19.6758 104.824 19.503 107.308C19.2859 110.431 23.3442 106.965 24.051 105.769" stroke="black" stroke-linecap="round" stroke-linejoin="round"/>
<path d="M33.6844 136.579C26.0235 136.579 14.7332 137.451 9.21541 143.669C2.78065 150.92 17.2092 148.552 21.0831 147.783C24.69 147.067 28.5199 145.623 31.9582 144.282C33.9817 143.492 36.905 142.737 38.3452 140.912C42.1057 136.144 32.3625 135.892 29.8005 137.192C26.2586 138.988 22.2353 140.458 18.3212 141.13C17.2418 141.316 9.19865 145.521 10.8122 145.989C15.0766 147.224 22.5929 143.102 26.2617 141.306C27.8112 140.547 37.7701 137.367 32.1308 137.367C25.9683 137.367 21.9065 139.565 16.4223 142.093C14.8591 142.814 9.01004 149.654 13.5741 149.14C19.5217 148.47 26.1722 145.292 31.1814 142.093C35.6134 139.263 29.028 138.942 26.6933 138.942C18.2582 138.942 11.1173 143.579 5.07251 149.096C-0.324217 154.022 16.3396 147.887 17.5444 147.433C27.1004 143.831 37.1455 141.796 46.7173 138.329C53.7221 135.792 42.548 135.003 40.6324 135.003C33.2138 135.003 25.1204 134.741 18.5801 138.986C15.5326 140.964 9.03818 144.965 7.44605 148.396C7.06758 149.211 20.9414 149.196 22.0325 149.184C27.9714 149.114 36.0605 147.576 41.064 144.063C41.7558 143.577 48.7935 138.154 44.9048 138.154C38.8201 138.154 35.0766 138.865 29.3689 141.13C28.2757 141.564 15.2975 148.859 16.9402 149.796C23.0445 153.279 36.3053 145.032 41.7113 142.575C46.2602 140.507 45.9493 138.005 40.6756 137.41C33.7308 136.628 26.2991 137.039 19.8748 139.73C19.1175 140.047 11.7632 145.927 14.6961 146.776C18.9255 148.002 24.6167 142.881 29.0237 142.881" stroke="black" stroke-linecap="round" stroke-linejoin="round"/>
<path d="M296.772 194.828C296.772 184.11 298.817 171.36 294.082 161.674C291.406 156.199 280.538 154.752 275.769 157.048C269.59 160.022 265.344 165.639 260.818 170.541C257.526 174.106 254.71 183.535 259.75 186.947C261.76 188.307 264.089 187.889 266.514 187.889C271.126 187.889 268.356 189.223 269.876 192.515C270.989 194.927 274.737 195.568 276.481 194.057C277.143 193.483 277.661 191.437 278.261 192.087C278.414 192.252 278.261 193.47 278.261 193.714C278.261 195.442 279.134 196.503 280.001 197.869C280.989 199.425 285.548 204.525 287.358 200.996C288.103 199.545 288.107 197.832 288.782 196.37C288.911 196.09 289.274 198.102 289.968 199.069C290.971 200.465 295.137 205.638 296.93 203.481C299.657 200.2 296.535 192.945 294.636 190.202" stroke="black" stroke-linecap="round" stroke-linejoin="round"/>
<path d="M276.105 165C279.133 165.081 284.655 167.54 280.518 171.185C278.548 172.921 274.686 173.12 272.094 172.952C269.403 172.778 272.414 167.545 273.297 166.767C274.545 165.668 278.517 165.01 279.314 166.767" stroke="black" stroke-linecap="round" stroke-linejoin="round"/>
<path d="M276.02 168C277.546 169.312 278.206 169.806 278.85 171.847C279.28 173.212 278.69 173.423 278.294 172.167C277.931 171.016 277.384 170.639 277.384 169.282C277.384 168.639 276.687 169.75 276.247 169.888C275.037 170.267 278.662 167.853 278.748 169.923C278.857 172.525 276.828 169.637 276.474 168.641" stroke="black" stroke-linecap="round" stroke-linejoin="round"/>
<path d="M271.761 206.4C277.982 204.558 287.4 202.64 293.663 206.993C300.967 212.069 288.572 213.375 285.206 213.605C282.072 213.818 278.548 213.42 275.371 213.021C273.502 212.787 270.912 212.8 269.219 211.479C264.799 208.028 272.638 205.455 275.091 206.026C278.482 206.815 282.17 207.19 285.542 206.864C286.471 206.774 294.208 208.681 293.032 209.496C289.923 211.65 282.638 209.692 279.144 208.933C277.668 208.613 268.67 208.102 273.249 206.746C278.253 205.264 282.181 206.296 287.359 207.287C288.835 207.569 295.546 212.411 291.692 213.038C286.671 213.856 280.359 212.553 275.375 210.836C270.965 209.316 276.22 207.439 278.116 206.878C284.965 204.849 292.093 207.368 298.583 210.954C304.378 214.156 289.088 212.559 287.979 212.434C279.187 211.441 270.447 211.998 261.68 211.133C255.265 210.5 264.112 207.092 265.668 206.631C271.692 204.848 278.189 202.662 284.716 204.967C287.758 206.041 294.179 208.134 296.455 210.885C296.996 211.539 285.726 214.862 284.837 215.112C279.994 216.477 272.985 217.017 267.915 215.011C267.214 214.734 259.944 211.472 263.102 210.537C268.043 209.074 271.286 208.824 276.571 209.52C277.583 209.654 290.213 213.196 289.147 214.448C285.189 219.096 272.057 214.752 266.962 213.807C262.676 213.012 262.211 210.652 266.323 208.841C271.738 206.456 277.89 205.044 283.879 205.958C284.584 206.066 292.242 209.668 290.104 211.149C287.021 213.286 280.931 209.977 277.353 211.036" stroke="black" stroke-linecap="round" stroke-linejoin="round"/>
</svg>
