<?xml version="1.0" standalone="no"?>
<!DOCTYPE svg PUBLIC "-//W3C//DTD SVG 20010904//EN"
 "http://www.w3.org/TR/2001/REC-SVG-20010904/DTD/svg10.dtd">
<svg version="1.0" xmlns="http://www.w3.org/2000/svg"
 width="1920.000000pt" height="1080.000000pt" viewBox="0 0 1920.000000 1080.000000"
 preserveAspectRatio="xMidYMid meet">
<metadata>
Created by potrace 1.16, written by Peter Selinger 2001-2019
</metadata>
<g transform="translate(0.000000,1080.000000) scale(0.100000,-0.100000)"
fill="#000000" stroke="none">
<path d="M14315 8751 c-105 -38 -133 -58 -146 -101 -18 -58 4 -102 59 -118 65
-20 276 -15 357 7 87 24 115 53 115 116 0 78 -45 99 -230 109 -87 5 -114 2
-155 -13z"/>
<path d="M13480 8732 c-52 -25 -64 -58 -48 -132 11 -56 14 -60 45 -66 58 -11
235 42 253 76 26 48 5 105 -45 126 -49 20 -162 18 -205 -4z"/>
<path d="M12722 8725 c-91 -25 -121 -59 -106 -120 11 -43 59 -58 172 -53 80 3
105 8 142 28 45 25 45 26 45 80 0 48 -3 56 -25 67 -33 17 -161 15 -228 -2z"/>
<path d="M11465 7799 c-36 -10 -103 -47 -127 -69 -37 -34 -45 -114 -14 -140
18 -14 163 -15 212 -2 55 16 106 52 123 86 19 41 4 106 -29 123 -28 14 -120
16 -165 2z"/>
<path d="M11602 6995 c-62 -19 -82 -46 -82 -112 0 -47 4 -59 29 -84 17 -16 32
-38 36 -48 12 -39 121 -38 200 2 95 47 145 106 145 169 -1 44 -17 64 -65 77
-54 15 -210 13 -263 -4z"/>
<path d="M11802 6164 c-112 -30 -137 -57 -130 -136 7 -69 45 -95 143 -97 114
-2 240 57 251 118 10 50 -6 103 -36 118 -33 17 -162 15 -228 -3z"/>
<path d="M7490 5909 c-76 -34 -110 -87 -110 -171 0 -57 20 -98 47 -98 9 0 21
-7 28 -16 8 -12 27 -17 67 -17 68 0 134 30 178 79 26 30 30 42 30 92 0 69 -14
99 -59 129 -44 30 -119 30 -181 2z m129 -90 c29 -27 24 -46 -19 -79 -30 -23
-42 -26 -87 -22 -67 5 -68 19 -9 78 49 49 80 56 115 23z"/>
<path d="M8445 5706 c-100 -32 -135 -66 -135 -131 0 -55 17 -75 68 -82 23 -3
42 -10 42 -14 0 -15 64 -10 121 8 72 23 129 78 129 124 0 55 -11 79 -41 94
-34 18 -129 18 -184 1z"/>
<path d="M9236 5594 c-60 -22 -76 -41 -76 -90 0 -38 5 -49 51 -94 49 -49 53
-51 93 -45 47 8 68 18 114 52 28 21 32 30 32 71 0 28 -7 57 -16 71 -34 48
-121 64 -198 35z"/>
<path d="M10124 5496 c-94 -23 -174 -91 -174 -149 0 -41 23 -76 56 -87 28 -9
34 -16 29 -31 -16 -48 24 -79 101 -79 86 0 157 50 170 118 10 50 -1 154 -19
189 -10 18 -29 35 -48 42 -38 13 -49 13 -115 -3z m96 -156 c0 -57 -56 -108
-106 -96 -22 6 -23 8 -9 22 29 29 14 63 -34 72 l-31 7 35 24 c19 13 51 29 72
37 35 12 39 11 56 -8 9 -11 17 -37 17 -58z"/>
<path d="M5819 5001 c-39 -12 -71 -31 -101 -59 -24 -22 -28 -34 -28 -79 0 -55
22 -93 54 -93 9 0 12 -7 9 -19 -8 -32 24 -53 71 -46 53 8 139 49 181 87 73 64
68 178 -9 208 -31 12 -139 12 -177 1z"/>
<path d="M6265 4456 c-85 -27 -129 -65 -140 -122 -11 -61 18 -124 57 -124 10
0 18 -6 18 -14 0 -15 30 -26 71 -26 61 0 206 106 230 168 6 15 8 46 4 69 -5
35 -11 43 -37 52 -41 15 -153 13 -203 -3z"/>
<path d="M6743 3976 c-100 -32 -140 -80 -130 -158 8 -58 35 -89 103 -116 96
-39 181 -19 274 65 35 32 43 46 47 85 12 108 -24 138 -162 137 -49 0 -109 -6
-132 -13z m186 -83 l24 -16 -38 -34 c-22 -19 -51 -41 -67 -49 -56 -29 -169 14
-137 52 27 32 79 50 184 63 6 0 21 -6 34 -16z"/>
<path d="M7287 3501 c-74 -44 -95 -68 -103 -118 -13 -85 32 -123 143 -123 99
1 196 59 209 126 8 44 -9 71 -56 85 -27 8 -40 18 -42 33 -3 18 -11 21 -53 23
-40 2 -60 -3 -98 -26z"/>
<path d="M6372 2501 c-112 -39 -181 -137 -169 -241 10 -84 19 -93 90 -88 69 4
170 46 226 93 84 71 82 193 -3 234 -51 25 -75 26 -144 2z"/>
<path d="M5665 2428 c-58 -15 -141 -73 -155 -108 -17 -41 -6 -97 25 -130 14
-14 25 -31 25 -38 0 -7 16 -12 43 -12 123 0 247 89 247 176 0 102 -67 142
-185 112z"/>
<path d="M4872 2330 c-68 -14 -144 -53 -185 -96 -37 -37 -38 -41 -35 -96 3
-36 11 -64 22 -77 70 -77 355 16 382 125 11 45 -5 113 -32 130 -30 20 -95 26
-152 14z"/>
<path d="M4027 2169 c-52 -12 -94 -35 -129 -71 -42 -43 -51 -73 -43 -146 9
-80 20 -86 170 -79 128 5 211 31 263 83 28 28 32 38 32 86 0 73 -17 93 -96
118 -69 21 -133 24 -197 9z m180 -104 c20 -14 22 -19 12 -31 -36 -44 -194 -88
-206 -57 -3 7 -20 13 -39 13 -31 0 -33 2 -23 18 15 24 69 61 105 72 39 13 121
4 151 -15z"/>
</g>
</svg>
